<?xml version="1.0" encoding="utf-8"?>
<!-- Generator: Adobe Illustrator 21.1.0, SVG Export Plug-In . SVG Version: 6.00 Build 0)  -->
<svg version="1.1" id="Layer_1" xmlns="http://www.w3.org/2000/svg" xmlns:xlink="http://www.w3.org/1999/xlink" x="0px" y="0px"
	 viewBox="0 0 166 34" style="enable-background:new 0 0 166 34;" xml:space="preserve">
<style type="text/css">
	.st0{fill-rule:evenodd;clip-rule:evenodd;fill:#434546;}
	.st1{fill-rule:evenodd;clip-rule:evenodd;fill:#D93A49;}
</style>
<g>
	<g>
		<path class="st0" d="M63.1,16.5c-0.8-1.2-2-1.7-3.2-1.7c-2.9,0-4.9,2.1-4.9,6.4c0,4.3,2.1,6.3,4.9,6.3c1.2,0,2.3-0.5,3.2-1.7v0.8
			c0,2.3-1.4,2.9-2.6,2.9c-1.2,0-2.4-0.4-3.3-1.3l-1.6,3.3c1.4,1.2,3.1,1.7,5.2,1.7c3,0,6.8-1.2,6.8-6.5V15.1h-4.5V16.5z M63.1,22.7
			c-0.4,0.6-1,0.8-1.6,0.8c-1.2,0-1.9-0.7-1.9-2.4c0-1.7,0.7-2.4,1.9-2.4c0.6,0,1.2,0.3,1.6,0.8V22.7z M52.5,14
			c1.4,0,2.5-1.1,2.5-2.5c0-1.4-1.1-2.5-2.5-2.5c-1.4,0-2.5,1.1-2.5,2.5C50,12.9,51.1,14,52.5,14z M50.3,27.8h4.5V15.1h-4.5V27.8z
			 M44.9,16.5c-0.8-1.2-2-1.7-3.2-1.7c-2.9,0-4.9,2.5-4.9,6.7c0,4.4,2.1,6.7,4.9,6.7c1.2,0,2.3-0.5,3.2-1.7v1.4h4.5V10.2h-4.5V16.5z
			 M44.9,23.3c-0.4,0.6-1,0.9-1.6,0.9c-1.2,0-1.9-1.1-1.9-2.8c0-1.7,0.7-2.7,1.9-2.7c0.6,0,1.2,0.3,1.6,0.9V23.3z M70.8,14
			c1.4,0,2.5-1.1,2.5-2.5c0-1.4-1.1-2.5-2.5-2.5c-1.4,0-2.5,1.1-2.5,2.5C68.2,12.9,69.4,14,70.8,14z M101.3,22.4
			c-0.3,0.5-0.8,1.1-1.7,1.1c-0.9,0-1.4-0.4-1.4-1.4v-7h-4.5v8.8c0,2,1.1,3.5,3.7,3.5c1.7,0,3.2-0.9,3.8-1.8v0.9
			c0,1.9-0.9,2.9-2.5,2.9c-1.1,0-2.4-0.4-3.3-1.3l-1.6,3.3c1.3,1.1,3.1,1.7,5.2,1.7c4.4,0,6.7-2.4,6.7-6.5V15.1h-4.5V22.4z
			 M151.9,14.8c-3.3,0-5.2,3-5.2,6.7c0,3.9,2.1,6.7,5.5,6.7c1.7,0,3.2-0.8,4.2-2l-1-1.1c-0.8,1-1.9,1.6-3.1,1.6
			c-2.3,0-3.6-1.9-3.7-4.5h8.3v-0.6C156.9,17.8,155.3,14.8,151.9,14.8z M148.6,20.6c0.1-1.8,1-4.3,3.2-4.3c2.4,0,3.2,2.4,3.2,4.3
			H148.6z M159.6,18.1c0-1,0.9-1.8,2.3-1.8c1.3,0,2.4,0.6,3,1.4l0.9-1.3c-0.9-1-2.2-1.6-3.9-1.6c-2.5,0-4.1,1.5-4.1,3.4
			c0,4.4,6.4,3.4,6.4,6.4c0,1.2-1,2.1-2.5,2.1c-1.4,0-2.6-0.7-3.3-1.6l-1,1.3c1.1,1.2,2.5,1.8,4.4,1.8c2.6,0,4.3-1.5,4.3-3.6
			C166,19.9,159.6,20.9,159.6,18.1z M68.5,27.8H73V15.1h-4.5V27.8z M142.1,14.8c-1.5,0-3,1.1-3.6,2.3c-0.2-1.3-1.2-2.3-2.9-2.3
			c-1.5,0-3,1.2-3.5,2.1v-1.8h-1.9v12.8h1.9v-9.3c0.6-1,1.6-2,2.8-2c1.2,0,1.8,0.8,1.8,2.2v9.2h1.9v-9.3c0.5-1,1.6-2,2.8-2
			c1.2,0,1.8,0.8,1.8,2.2v9.2h1.9v-9.7C145.1,15.8,144,14.8,142.1,14.8z M126.1,16.9c-0.8-1.4-2-2.2-3.4-2.2c-2.9,0-4.6,2.7-4.6,6.7
			c0,4,1.7,6.7,4.6,6.7c1.4,0,2.6-0.8,3.4-2.1v1.8h1.9V15.1h-1.9V16.9z M126.1,24.4c-0.5,1.1-1.7,2.1-2.9,2.1c-2.1,0-3.1-2.2-3.1-5
			c0-2.8,1-5,3.1-5c1.2,0,2.4,1,2.9,2.1V24.4z M87.1,14.8c-3.1,0-5.1,1.7-6,4v-3.7h-2v-3.5h-4.5v3.5H73v3.9h1.6v5.3
			c0,2.6,1.2,3.9,4,3.9c1.3,0,2.3-0.3,2.8-0.7L80.7,24c-0.1,0.1-0.5,0.2-0.8,0.2c-0.5,0-0.8-0.4-0.8-1.1v-4.2h1.9
			c-0.3,0.8-0.4,1.6-0.4,2.5c0,3.6,2.3,6.7,6.5,6.7c4.2,0,6.5-3.1,6.5-6.7C93.6,17.9,91.3,14.8,87.1,14.8z M87.1,24.2
			c-1.2,0-1.8-1.1-1.8-2.8c0-1.6,0.6-2.7,1.8-2.7c1.2,0,1.8,1.1,1.8,2.7C89,23.1,88.4,24.2,87.1,24.2z M114.7,16.9
			c-0.8-1.4-2-2.2-3.4-2.2c-2.9,0-4.6,2.6-4.6,6.6c0,4,1.7,6.6,4.6,6.6c1.4,0,2.6-0.9,3.4-2.2v2.1c0,2.4-1.5,3.4-3.2,3.4
			c-1.4,0-2.5-0.5-3.3-1.5l-0.9,1.6c1.2,1.2,2.6,1.6,4.3,1.6c2.7,0,5.1-1.3,5.1-5.1V15.1h-1.9V16.9z M114.7,24.2
			c-0.5,1.1-1.7,2.1-2.9,2.1c-2.1,0-3.1-2.2-3.1-4.9c0-2.7,1-4.9,3.1-4.9c1.2,0,2.4,1,2.9,2.1V24.2z"/>
	</g>
</g>
<path class="st1" d="M19.3,0c1.8,0,3.2,1.4,3.2,3.1c0,1.7-1.5,3.1-3.2,3.1c-0.4,0-0.7-0.1-1-0.2c-0.7,0.8-1.2,1.8-1.4,2.9h8.8
	c2,0,3.6,1.6,3.6,3.5v4.3h1.6c0.5,0,1,0.4,1,0.9v7.4c0,0.5-0.4,0.9-1,0.9h-1.6v1.3v2c0,2.6-6,4.7-13.4,4.7S2.5,31.9,2.5,29.3v-2V26
	H1c-0.5,0-1-0.4-1-0.9v-7.4c0-0.5,0.4-0.9,1-0.9h1.6v-4.3C2.5,10.6,4.2,9,6.1,9h8.9c0.2-1.5,0.8-2.8,1.7-3.9c-0.5-0.5-0.7-1.2-0.7-2
	C16,1.4,17.5,0,19.3,0 M21.4,14.3c-1.8-0.5-3.7-0.6-5.5-0.5c-1.9,0-3.7,0-5.5,0.5c-3.3,1.4-4.3,5.2-4.1,8.3c0.2,1,0.1,2.7,1.6,2.5
	c2.3-0.4,3.5-2.9,5.8-3.3c0.7-0.1,1.4-0.2,2.2-0.2c0.8,0,1.4,0.1,2.2,0.2c2.3,0.4,3.5,2.9,5.8,3.3c1.5,0.3,1.4-1.5,1.6-2.5
	C25.7,19.5,24.7,15.7,21.4,14.3z M20.1,20.6c-1,0-1.8-0.8-1.8-1.7c0-1,0.8-1.7,1.8-1.7c1,0,1.8,0.8,1.8,1.7
	C21.9,19.8,21.1,20.6,20.1,20.6z M12.4,20.9H11v-1.2H9.8v-1.4H11v-1.2h1.4v1.2h1.2v1.4h-1.2V20.9z"/>
</svg>
